{
  "source": "C:\\Users\\Peter\\Desktop\\stuff\\MIUN\\quantitative_research\\video_compression\\videos\\BVI-HD\\BVI-HD_CDVL_videos\\ORIG\\BubblesPitcher_1920x1080_60fps.mp4",
  "output": "C:\\Users\\Peter\\Desktop\\stuff\\MIUN\\quantitative_research\\video_compression\\compressed_videos\\BVI-HD\\av1\\2.5\\BubblesPitcher_1920x1080_60fps_av1.mkv",
  "codec": "av1",
  "ok": "Input #0, mov,mp4,m4a,3gp,3g2,mj2, from 'C:\\Users\\Peter\\Desktop\\stuff\\MIUN\\quantitative_research\\video_compression\\videos\\BVI-HD\\BVI-HD_CDVL_videos\\ORIG\\BubblesPitcher_1920x1080_60fps.mp4':\n  Metadata:\n    major_brand     : isom\n    minor_version   : 512\n    compatible_brands: isomiso2avc1mp41\n    encoder         : Lavf54.28.101\n  Duration: 00:00:05.00, start: 0.000000, bitrate: 188849 kb/s\n  Stream #0:0[0x1](und): Video: h264 (High 4:4:4 Predictive) (avc1 / 0x31637661), yuv420p(progressive), 1920x1080, 188844 kb/s, 60 fps, 60 tbr, 60 tbn (default)\n    Metadata:\n      handler_name    : VideoHandler\n      vendor_id       : [0][0][0][0]\n[out#0/matroska @ 0000020ee761cd80] Codec AVOption b:a (set bitrate (in bits/s)) has not been used for any stream. The most likely reason is either wrong type (e.g. a video option with no video streams) or that it is a private option of some decoder which was not actually used for any stream.\nStream mapping:\n  Stream #0:0 -> #0:0 (h264 (native) -> av1 (libsvtav1))\nPress [q] to stop, [?] for help\nSvt[info]: -------------------------------------------\nSvt[info]: SVT [version]:\tSVT-AV1 Encoder Lib v3.1.0-19-g6ecfe8ec\nSvt[info]: SVT [build]  :\tGCC 15.2.0\t 64 bit\nSvt[info]: LIB Build date: Aug 17 2025 11:37:13\nSvt[info]: -------------------------------------------\nSvt[info]: Level of Parallelism: 5\nSvt[info]: Number of PPCS 93\nSvt[info]: [asm level on system : up to avx2]\nSvt[info]: [asm level selected : up to avx2]\nSvt[info]: -------------------------------------------\nSvt[info]: SVT [config]: main profile\ttier (auto)\tlevel (auto)\nSvt[info]: SVT [config]: width / height / fps numerator / fps denominator \t\t: 1920 / 1080 / 60 / 1\nSvt[info]: SVT [config]: bit-depth / color format \t\t\t\t\t: 8 / YUV420\nSvt[info]: SVT [config]: preset / tune / pred struct \t\t\t\t\t: 4 / PSNR / random access\nSvt[info]: SVT [config]: gop size / mini-gop size / key-frame type \t\t\t: 321 / 16 / key frame\nSvt[info]: SVT [config]: BRC mode / target bitrate (kbps)\t\t\t\t: VBR / 2500 \nSvt[info]: SVT [config]: AQ mode / Variance Boost \t\t\t\t\t: 2 / 0\nSvt[info]: SVT [config]: sharpness / luminance-based QP bias \t\t\t\t: 0 / 0\nSvt[info]: SVT [config]: QP scale compress strength \t\t\t\t\t: 0\nSvt[info]: -------------------------------------------\nOutput #0, matroska, to 'C:\\Users\\Peter\\Desktop\\stuff\\MIUN\\quantitative_research\\video_compression\\compressed_videos\\BVI-HD\\av1\\2.5\\BubblesPitcher_1920x1080_60fps_av1.mkv':\n  Metadata:\n    major_brand     : isom\n    minor_version   : 512\n    compatible_brands: isomiso2avc1mp41\n    encoder         : Lavf62.3.100\n  Stream #0:0(und): Video: av1 (AV01 / 0x31305641), yuv420p(tv, progressive), 1920x1080, q=2-31, 2500 kb/s, 60 fps, 1k tbn (default)\n    Metadata:\n      encoder         : Lavc62.11.100 libsvtav1\n      handler_name    : VideoHandler\n      vendor_id       : [0][0][0][0]\n    Side data:\n      cpb: bitrate max/min/avg: 0/0/2500000 buffer size: 2500000 vbv_delay: N/A\nframe=    0 fps=0.0 q=0.0 size=       0KiB time=N/A bitrate=N/A speed=N/A elapsed=0:00:01.03    \nframe=    0 fps=0.0 q=0.0 size=       0KiB time=N/A bitrate=N/A speed=N/A elapsed=0:00:01.61    \nframe=    0 fps=0.0 q=0.0 size=       0KiB time=N/A bitrate=N/A speed=N/A elapsed=0:00:02.12    \nframe=    0 fps=0.0 q=0.0 size=       0KiB time=N/A bitrate=N/A speed=N/A elapsed=0:00:02.64    \nframe=    0 fps=0.0 q=0.0 size=       0KiB time=N/A bitrate=N/A speed=N/A elapsed=0:00:03.16    \nframe=    0 fps=0.0 q=0.0 size=       0KiB time=N/A bitrate=N/A speed=N/A elapsed=0:00:03.69    \nframe=    0 fps=0.0 q=0.0 size=       0KiB time=N/A bitrate=N/A speed=N/A elapsed=0:00:04.22    \nframe=    0 fps=0.0 q=0.0 size=       0KiB time=N/A bitrate=N/A speed=N/A elapsed=0:00:04.77    \nframe=    0 fps=0.0 q=0.0 size=       0KiB time=N/A bitrate=N/A speed=N/A elapsed=0:00:05.29    \nframe=    0 fps=0.0 q=0.0 size=       0KiB time=N/A bitrate=N/A speed=N/A elapsed=0:00:05.81    \nframe=    0 fps=0.0 q=0.0 size=       0KiB time=N/A bitrate=N/A speed=N/A elapsed=0:00:06.37    \nframe=    1 fps=0.1 q=4.0 size=       1KiB time=00:00:00.00 bitrate=N/A speed=   0x elapsed=0:00:06.95    \nframe=    1 fps=0.1 q=4.0 size=       1KiB time=00:00:00.00 bitrate=N/A speed=   0x elapsed=0:00:07.50    \nframe=    8 fps=1.0 q=33.0 size=       1KiB time=00:00:00.11 bitrate=  48.8kbits/s speed=0.0144x elapsed=0:00:08.10    \nframe=   13 fps=1.5 q=28.0 size=       1KiB time=00:00:00.20 bitrate=  28.5kbits/s speed=0.0228x elapsed=0:00:08.77    \nframe=   18 fps=1.9 q=28.0 size=       1KiB time=00:00:00.28 bitrate=  20.1kbits/s speed=0.0303x elapsed=0:00:09.34    \nframe=   22 fps=2.2 q=27.0 size=       1KiB time=00:00:00.33 bitrate=  17.1kbits/s speed=0.0337x elapsed=0:00:09.89    \nframe=   26 fps=2.5 q=27.0 size=       1KiB time=00:00:00.41 bitrate=  13.7kbits/s speed=0.0398x elapsed=0:00:10.47    \nframe=   28 fps=2.5 q=27.0 size=       1KiB time=00:00:00.45 bitrate=  12.7kbits/s speed=0.0407x elapsed=0:00:11.04    \nframe=   31 fps=2.7 q=28.0 size=       1KiB time=00:00:00.50 bitrate=  11.4kbits/s speed=0.0431x elapsed=0:00:11.60    \nframe=   36 fps=3.0 q=22.0 size=       1KiB time=00:00:00.58 bitrate=   9.8kbits/s speed=0.048x elapsed=0:00:12.16    \nframe=   37 fps=2.9 q=25.0 size=       1KiB time=00:00:00.60 bitrate=   9.5kbits/s speed=0.0469x elapsed=0:00:12.78    \nframe=   41 fps=3.1 q=18.0 size=       1KiB time=00:00:00.66 bitrate=   8.5kbits/s speed=0.0499x elapsed=0:00:13.34    \nframe=   44 fps=3.2 q=28.0 size=       1KiB time=00:00:00.71 bitrate=   7.9kbits/s speed=0.0515x elapsed=0:00:13.91    \nframe=   49 fps=3.4 q=15.0 size=       1KiB time=00:00:00.80 bitrate=   7.1kbits/s speed=0.0553x elapsed=0:00:14.46    \nframe=   52 fps=3.5 q=30.0 size=       1KiB time=00:00:00.85 bitrate=   6.7kbits/s speed=0.0566x elapsed=0:00:15.00    \nframe=   53 fps=3.4 q=29.0 size=       1KiB time=00:00:00.86 bitrate=   6.6kbits/s speed=0.0555x elapsed=0:00:15.62    \nframe=   57 fps=3.5 q=17.0 size=       1KiB time=00:00:00.91 bitrate=   6.2kbits/s speed=0.0567x elapsed=0:00:16.15    \nframe=   59 fps=3.5 q=31.0 size=       1KiB time=00:00:00.96 bitrate=   5.9kbits/s speed=0.0578x elapsed=0:00:16.73    \nframe=   66 fps=3.8 q=31.0 size=       1KiB time=00:00:01.08 bitrate=   5.3kbits/s speed=0.0627x elapsed=0:00:17.27    \nframe=   68 fps=3.8 q=31.0 size=       1KiB time=00:00:01.11 bitrate=   5.1kbits/s speed=0.0627x elapsed=0:00:17.79    \nframe=   70 fps=3.8 q=30.0 size=       1KiB time=00:00:01.15 bitrate=   5.0kbits/s speed=0.0625x elapsed=0:00:18.39    \nframe=   75 fps=4.0 q=33.0 size=       1KiB time=00:00:01.23 bitrate=   4.6kbits/s speed=0.0652x elapsed=0:00:18.92    \nframe=   82 fps=4.2 q=32.0 size=       1KiB time=00:00:01.35 bitrate=   4.2kbits/s speed=0.0694x elapsed=0:00:19.45    \nframe=   85 fps=4.3 q=31.0 size=       1KiB time=00:00:01.38 bitrate=   4.1kbits/s speed=0.0692x elapsed=0:00:19.98    \nframe=   86 fps=4.2 q=32.0 size=       1KiB time=00:00:01.41 bitrate=   4.0kbits/s speed=0.0687x elapsed=0:00:20.63    \nframe=   93 fps=4.4 q=33.0 size=       1KiB time=00:00:01.53 bitrate=   3.7kbits/s speed=0.0724x elapsed=0:00:21.17    \nframe=   99 fps=4.6 q=37.0 size=       1KiB time=00:00:01.63 bitrate=   3.5kbits/s speed=0.0752x elapsed=0:00:21.70    \nframe=  102 fps=4.6 q=35.0 size=       1KiB time=00:00:01.66 bitrate=   3.4kbits/s speed=0.0749x elapsed=0:00:22.23    \nframe=  106 fps=4.6 q=36.0 size=       1KiB time=00:00:01.75 bitrate=   3.3kbits/s speed=0.0764x elapsed=0:00:22.89    \nframe=  110 fps=4.7 q=35.0 size=       1KiB time=00:00:01.81 bitrate=   3.1kbits/s speed=0.0773x elapsed=0:00:23.49    \nframe=  116 fps=4.8 q=36.0 size=       1KiB time=00:00:01.91 bitrate=   3.0kbits/s speed=0.0798x elapsed=0:00:24.02    \nframe=  121 fps=4.9 q=28.0 size=       1KiB time=00:00:01.96 bitrate=   2.9kbits/s speed=0.08x elapsed=0:00:24.57    \nframe=  125 fps=5.0 q=38.0 size=       1KiB time=00:00:02.05 bitrate=   2.8kbits/s speed=0.0812x elapsed=0:00:25.23    \nframe=  128 fps=4.9 q=38.0 size=       1KiB time=00:00:02.11 bitrate=   2.7kbits/s speed=0.0818x elapsed=0:00:25.87    \nframe=  132 fps=5.0 q=36.0 size=       1KiB time=00:00:02.18 bitrate=   2.6kbits/s speed=0.0827x elapsed=0:00:26.39    \nframe=  134 fps=5.0 q=38.0 size=       1KiB time=00:00:02.21 bitrate=   2.6kbits/s speed=0.0822x elapsed=0:00:26.96    \nframe=  137 fps=5.0 q=25.0 size=       1KiB time=00:00:02.26 bitrate=   2.5kbits/s speed=0.082x elapsed=0:00:27.62    \nframe=  141 fps=5.0 q=39.0 size=       1KiB time=00:00:02.33 bitrate=   2.4kbits/s speed=0.0826x elapsed=0:00:28.25    \nframe=  145 fps=5.0 q=19.0 size=       1KiB time=00:00:02.40 bitrate=   2.4kbits/s speed=0.0834x elapsed=0:00:28.78    \nframe=  149 fps=5.1 q=40.0 size=       1KiB time=00:00:02.46 bitrate=   2.3kbits/s speed=0.0841x elapsed=0:00:29.32    \nframe=  151 fps=5.0 q=44.0 size=       1KiB time=00:00:02.50 bitrate=   2.3kbits/s speed=0.0835x elapsed=0:00:29.92    \nframe=  154 fps=5.0 q=48.0 size=       1KiB time=00:00:02.53 bitrate=   2.2kbits/s speed=0.0829x elapsed=0:00:30.57    \nframe=  158 fps=5.1 q=48.0 size=       1KiB time=00:00:02.61 bitrate=   2.2kbits/s speed=0.0838x elapsed=0:00:31.20    \nframe=  161 fps=5.1 q=24.0 size=       1KiB time=00:00:02.66 bitrate=   2.1kbits/s speed=0.084x elapsed=0:00:31.74    \nframe=  165 fps=5.1 q=42.0 size=       1KiB time=00:00:02.71 bitrate=   2.1kbits/s speed=0.0842x elapsed=0:00:32.27    \nframe=  166 fps=5.0 q=48.0 size=       1KiB time=00:00:02.73 bitrate=   2.1kbits/s speed=0.083x elapsed=0:00:32.93    \nframe=  169 fps=5.0 q=38.0 size=       1KiB time=00:00:02.76 bitrate=   2.1kbits/s speed=0.0824x elapsed=0:00:33.58    \nframe=  171 fps=5.0 q=46.0 size=       1KiB time=00:00:02.83 bitrate=   2.0kbits/s speed=0.083x elapsed=0:00:34.14    \nframe=  176 fps=5.1 q=48.0 size=       1KiB time=00:00:02.90 bitrate=   2.0kbits/s speed=0.0837x elapsed=0:00:34.66    \nframe=  180 fps=5.1 q=48.0 size=       1KiB time=00:00:02.98 bitrate=   1.9kbits/s speed=0.0847x elapsed=0:00:35.20    \nframe=  181 fps=5.0 q=46.0 size=       1KiB time=00:00:03.00 bitrate=   1.9kbits/s speed=0.0837x elapsed=0:00:35.85    \nframe=  181 fps=5.0 q=46.0 size=       1KiB time=00:00:03.00 bitrate=   1.9kbits/s speed=0.0823x elapsed=0:00:36.47    \nframe=  185 fps=5.0 q=43.0 size=       1KiB time=00:00:03.06 bitrate=   1.9kbits/s speed=0.0828x elapsed=0:00:37.01    \nframe=  187 fps=5.0 q=46.0 size=       1KiB time=00:00:03.10 bitrate=   1.8kbits/s speed=0.0825x elapsed=0:00:37.56    \nframe=  190 fps=5.0 q=51.0 size=       1KiB time=00:00:03.15 bitrate=   1.8kbits/s speed=0.0827x elapsed=0:00:38.08    \nframe=  193 fps=5.0 q=33.0 size=       1KiB time=00:00:03.20 bitrate=   1.8kbits/s speed=0.0828x elapsed=0:00:38.62    \nframe=  196 fps=5.0 q=51.0 size=       1KiB time=00:00:03.25 bitrate=   1.8kbits/s speed=0.0829x elapsed=0:00:39.18    \nframe=  197 fps=4.9 q=46.0 size=       1KiB time=00:00:03.25 bitrate=   1.8kbits/s speed=0.0817x elapsed=0:00:39.80    \nframe=  197 fps=4.9 q=46.0 size=       1KiB time=00:00:03.26 bitrate=   1.7kbits/s speed=0.0807x elapsed=0:00:40.45    \nframe=  199 fps=4.8 q=46.0 size=       1KiB time=00:00:03.30 bitrate=   1.7kbits/s speed=0.0802x elapsed=0:00:41.13    \nframe=  205 fps=4.9 q=45.0 size=       1KiB time=00:00:03.40 bitrate=   1.7kbits/s speed=0.0815x elapsed=0:00:41.72    \nframe=  205 fps=4.8 q=45.0 size=       1KiB time=00:00:03.40 bitrate=   1.7kbits/s speed=0.0801x elapsed=0:00:42.42    \nframe=  209 fps=4.9 q=37.0 size=       1KiB time=00:00:03.46 bitrate=   1.6kbits/s speed=0.0806x elapsed=0:00:43.02    \nframe=  209 fps=4.8 q=37.0 size=       1KiB time=00:00:03.46 bitrate=   1.6kbits/s speed=0.0795x elapsed=0:00:43.61    \nframe=  213 fps=4.8 q=48.0 size=       1KiB time=00:00:03.53 bitrate=   1.6kbits/s speed=0.08x elapsed=0:00:44.18    \nframe=  217 fps=4.9 q=45.0 size=       1KiB time=00:00:03.60 bitrate=   1.6kbits/s speed=0.0805x elapsed=0:00:44.72    \nframe=  217 fps=4.8 q=45.0 size=       1KiB time=00:00:03.60 bitrate=   1.6kbits/s speed=0.0795x elapsed=0:00:45.26    \nframe=  217 fps=4.7 q=45.0 size=       1KiB time=00:00:03.60 bitrate=   1.6kbits/s speed=0.0786x elapsed=0:00:45.81    \nframe=  221 fps=4.8 q=48.0 size=       1KiB time=00:00:03.66 bitrate=   1.6kbits/s speed=0.0791x elapsed=0:00:46.34    \nframe=  225 fps=4.8 q=38.0 size=       1KiB time=00:00:03.73 bitrate=   1.5kbits/s speed=0.0796x elapsed=0:00:46.89    \nframe=  229 fps=4.8 q=51.0 size=       1KiB time=00:00:03.80 bitrate=   1.5kbits/s speed=0.0801x elapsed=0:00:47.41    \nframe=  233 fps=4.9 q=48.0 size=       1KiB time=00:00:03.86 bitrate=   1.5kbits/s speed=0.0806x elapsed=0:00:47.97    \nframe=  233 fps=4.8 q=48.0 size=       1KiB time=00:00:03.86 bitrate=   1.5kbits/s speed=0.0797x elapsed=0:00:48.51    \nframe=  233 fps=4.7 q=48.0 size=       1KiB time=00:00:03.86 bitrate=   1.5kbits/s speed=0.0788x elapsed=0:00:49.06    \nframe=  237 fps=4.8 q=52.0 size=       1KiB time=00:00:03.93 bitrate=   1.4kbits/s speed=0.0793x elapsed=0:00:49.57    \nframe=  241 fps=4.8 q=39.0 size=       1KiB time=00:00:04.00 bitrate=   1.4kbits/s speed=0.0798x elapsed=0:00:50.11    \nframe=  245 fps=4.8 q=53.0 size=       1KiB time=00:00:04.06 bitrate=   1.4kbits/s speed=0.0803x elapsed=0:00:50.64    \nframe=  249 fps=4.9 q=52.0 size=       1KiB time=00:00:04.13 bitrate=   1.4kbits/s speed=0.0808x elapsed=0:00:51.18    \nframe=  249 fps=4.8 q=52.0 size=       1KiB time=00:00:04.13 bitrate=   1.4kbits/s speed=0.0799x elapsed=0:00:51.73    \nframe=  253 fps=4.8 q=53.0 size=       1KiB time=00:00:04.20 bitrate=   1.4kbits/s speed=0.0804x elapsed=0:00:52.26    \nframe=  253 fps=4.8 q=53.0 size=       1KiB time=00:00:04.20 bitrate=   1.4kbits/s speed=0.0795x elapsed=0:00:52.80    \nframe=  257 fps=4.8 q=42.0 size=       1KiB time=00:00:04.26 bitrate=   1.3kbits/s speed=0.08x elapsed=0:00:53.34    \nframe=  261 fps=4.8 q=53.0 size=       1KiB time=00:00:04.33 bitrate=   1.3kbits/s speed=0.0804x elapsed=0:00:53.89    \nframe=  265 fps=4.9 q=52.0 size=       1KiB time=00:00:04.40 bitrate=   1.3kbits/s speed=0.0808x elapsed=0:00:54.42    \nframe=  265 fps=4.8 q=52.0 size=       1KiB time=00:00:04.40 bitrate=   1.3kbits/s speed=0.0801x elapsed=0:00:54.94    \nframe=  269 fps=4.8 q=53.0 size=       1KiB time=00:00:04.46 bitrate=   1.3kbits/s speed=0.0805x elapsed=0:00:55.50    \nframe=  273 fps=4.9 q=42.0 size=       1KiB time=00:00:04.53 bitrate=   1.3kbits/s speed=0.0809x elapsed=0:00:56.02    \nframe=  277 fps=4.9 q=53.0 size=       1KiB time=00:00:04.60 bitrate=   1.2kbits/s speed=0.0813x elapsed=0:00:56.55    \nframe=  281 fps=4.9 q=52.0 size=       1KiB time=00:00:04.66 bitrate=   1.2kbits/s speed=0.0817x elapsed=0:00:57.09    \nframe=  281 fps=4.9 q=52.0 size=       1KiB time=00:00:04.66 bitrate=   1.2kbits/s speed=0.081x elapsed=0:00:57.63    \nframe=  281 fps=4.8 q=52.0 size=       1KiB time=00:00:04.66 bitrate=   1.2kbits/s speed=0.0803x elapsed=0:00:58.14    \nframe=  285 fps=4.9 q=54.0 size=       1KiB time=00:00:04.73 bitrate=   1.2kbits/s speed=0.0807x elapsed=0:00:58.67    \n[out#0/matroska @ 0000020ee761cd80] video:1866KiB audio:0KiB subtitle:0KiB other streams:0KiB global headers:0KiB muxing overhead: 0.111930%\nframe=  300 fps=5.1 q=54.0 Lsize=    1868KiB time=00:00:04.98 bitrate=3071.3kbits/s speed=0.0845x elapsed=0:00:58.97    \n",
  "seconds": 59.52360534667969,
  "probe_out": {}
}